<svg width="22" height="18" viewBox="0 0 22 18" fill="none" xmlns="http://www.w3.org/2000/svg">
<path d="M11 17.5C9.65 16.65 7.2 16 5.5 16C3.85 16 2.15 16.3 0.75 17.05C0.65 17.1 0.6 17.1 0.5 17.1C0.25 17.1 0 16.85 0 16.6V2C0.6 1.55 1.25 1.25 2 1C3.11 0.65 4.33 0.5 5.5 0.5C7.45 0.5 9.55 0.9 11 2C12.45 0.9 14.55 0.5 16.5 0.5C17.67 0.5 18.89 0.65 20 1C20.75 1.25 21.4 1.55 22 2V16.6C22 16.85 21.75 17.1 21.5 17.1C21.4 17.1 21.35 17.1 21.25 17.05C19.85 16.3 18.15 16 16.5 16C14.8 16 12.35 16.65 11 17.5ZM10 3.5C8.64 2.9 6.84 2.5 5.5 2.5C4.3 2.5 3.1 2.65 2 3V14.5C3.1 14.15 4.3 14 5.5 14C6.84 14 8.64 14.4 10 15V3.5ZM12 15C13.36 14.4 15.16 14 16.5 14C17.7 14 18.9 14.15 20 14.5V3C18.9 2.65 17.7 2.5 16.5 2.5C15.16 2.5 13.36 2.9 12 3.5V15Z" fill="#131314"/>
</svg>
