<svg width="24" height="15" viewBox="0 0 24 15" fill="none" xmlns="http://www.w3.org/2000/svg">
<path d="M12 0.5C11.0717 0.5 10.1815 0.868749 9.52513 1.52513C8.86875 2.1815 8.5 3.07174 8.5 4C8.5 4.92826 8.86875 5.8185 9.52513 6.47487C10.1815 7.13125 11.0717 7.5 12 7.5C12.9283 7.5 13.8185 7.13125 14.4749 6.47487C15.1313 5.8185 15.5 4.92826 15.5 4C15.5 3.07174 15.1313 2.1815 14.4749 1.52513C13.8185 0.868749 12.9283 0.5 12 0.5ZM12 2.5C12.3978 2.5 12.7794 2.65804 13.0607 2.93934C13.342 3.22064 13.5 3.60218 13.5 4C13.5 4.39782 13.342 4.77936 13.0607 5.06066C12.7794 5.34196 12.3978 5.5 12 5.5C11.6022 5.5 11.2206 5.34196 10.9393 5.06066C10.658 4.77936 10.5 4.39782 10.5 4C10.5 3.60218 10.658 3.22064 10.9393 2.93934C11.2206 2.65804 11.6022 2.5 12 2.5ZM5.5 3.5C4.83696 3.5 4.20107 3.76339 3.73223 4.23223C3.26339 4.70107 3 5.33696 3 6C3 6.94 3.53 7.75 4.29 8.18C4.65 8.38 5.06 8.5 5.5 8.5C5.94 8.5 6.35 8.38 6.71 8.18C7.08 7.97 7.39 7.67 7.62 7.31C6.89148 6.36057 6.49767 5.19672 6.5 4V3.72C6.2 3.58 5.86 3.5 5.5 3.5ZM18.5 3.5C18.14 3.5 17.8 3.58 17.5 3.72V4C17.5 5.2 17.11 6.36 16.38 7.31C16.5 7.5 16.63 7.65 16.78 7.8C17.2412 8.2471 17.8577 8.49802 18.5 8.5C18.94 8.5 19.35 8.38 19.71 8.18C20.47 7.75 21 6.94 21 6C21 5.33696 20.7366 4.70107 20.2678 4.23223C19.7989 3.76339 19.163 3.5 18.5 3.5ZM12 9.5C9.66 9.5 5 10.67 5 13V14.5H19V13C19 10.67 14.34 9.5 12 9.5ZM4.71 10.05C2.78 10.28 0 11.26 0 13V14.5H3V12.57C3 11.56 3.69 10.72 4.71 10.05ZM19.29 10.05C20.31 10.72 21 11.56 21 12.57V14.5H24V13C24 11.26 21.22 10.28 19.29 10.05ZM12 11.5C13.53 11.5 15.24 12 16.23 12.5H7.77C8.76 12 10.47 11.5 12 11.5Z" fill="#F2F2F3"/>
</svg>
