<svg width="14" height="23" viewBox="0 0 14 23" fill="none" xmlns="http://www.w3.org/2000/svg">
<path d="M12 2.5H9V4.5H12V20.5H2V4.5H5V2.5H2C1.46957 2.5 0.960859 2.71071 0.585786 3.08579C0.210714 3.46086 0 3.96957 0 4.5V20.5C0 21.0304 0.210714 21.5391 0.585786 21.9142C0.960859 22.2893 1.46957 22.5 2 22.5H12C12.5304 22.5 13.0391 22.2893 13.4142 21.9142C13.7893 21.5391 14 21.0304 14 20.5V4.5C14 3.96957 13.7893 3.46086 13.4142 3.08579C13.0391 2.71071 12.5304 2.5 12 2.5ZM7 6.5C7.53043 6.5 8.03914 6.71071 8.41421 7.08579C8.78929 7.46086 9 7.96957 9 8.5C9 9.03043 8.78929 9.53914 8.41421 9.91421C8.03914 10.2893 7.53043 10.5 7 10.5C6.46957 10.5 5.96086 10.2893 5.58579 9.91421C5.21071 9.53914 5 9.03043 5 8.5C5 7.96957 5.21071 7.46086 5.58579 7.08579C5.96086 6.71071 6.46957 6.5 7 6.5ZM11 14.5H3V13.5C3 12.17 5.67 11.5 7 11.5C8.33 11.5 11 12.17 11 13.5V14.5ZM11 17.5H3V16.5H11V17.5ZM7 19.5H3V18.5H7V19.5ZM8 4.5H6V0.5H8V4.5Z" fill="#F2F2F3"/>
</svg>
