<svg width="20" height="16" viewBox="0 0 20 16" fill="none" xmlns="http://www.w3.org/2000/svg">
<path d="M11.07 6.91004C11.6774 6.0613 12.0041 5.04375 12.0041 4.00004C12.0041 2.95632 11.6774 1.93877 11.07 1.09004C11.6388 0.702568 12.3118 0.496836 13 0.500037C13.9283 0.500037 14.8185 0.868786 15.4749 1.52516C16.1313 2.18154 16.5 3.07178 16.5 4.00004C16.5 4.92829 16.1313 5.81853 15.4749 6.47491C14.8185 7.13129 13.9283 7.50004 13 7.50004C12.3118 7.50324 11.6388 7.29751 11.07 6.91004ZM3.5 4.00004C3.5 3.3078 3.70527 2.63111 4.08986 2.05554C4.47444 1.47997 5.02107 1.03137 5.66061 0.766459C6.30015 0.501552 7.00388 0.43224 7.68282 0.567288C8.36175 0.702337 8.98539 1.03568 9.47487 1.52516C9.96436 2.01465 10.2977 2.63829 10.4327 3.31722C10.5678 3.99615 10.4985 4.69989 10.2336 5.33943C9.96867 5.97897 9.52007 6.5256 8.9445 6.91018C8.36892 7.29477 7.69223 7.50004 7 7.50004C6.07174 7.50004 5.1815 7.13129 4.52513 6.47491C3.86875 5.81853 3.5 4.92829 3.5 4.00004ZM5.5 4.00004C5.5 4.29671 5.58797 4.58672 5.7528 4.83339C5.91762 5.08007 6.15189 5.27232 6.42597 5.38586C6.70006 5.49939 7.00166 5.52909 7.29264 5.47121C7.58361 5.41334 7.85088 5.27048 8.06066 5.0607C8.27044 4.85092 8.4133 4.58364 8.47118 4.29267C8.52906 4.0017 8.49935 3.7001 8.38582 3.42601C8.27229 3.15192 8.08003 2.91765 7.83335 2.75283C7.58668 2.58801 7.29667 2.50004 7 2.50004C6.60218 2.50004 6.22064 2.65807 5.93934 2.93938C5.65804 3.22068 5.5 3.60221 5.5 4.00004ZM14 13.5V15.5H0V13.5C0 13.5 0 9.50004 7 9.50004C14 9.50004 14 13.5 14 13.5ZM12 13.5C11.86 12.72 10.67 11.5 7 11.5C3.33 11.5 2.07 12.81 2 13.5M13.95 9.50004C14.5629 9.97677 15.064 10.5819 15.4182 11.2729C15.7723 11.9639 15.9709 12.7241 16 13.5V15.5H20V13.5C20 13.5 20 9.87004 13.94 9.50004H13.95Z" fill="#F2F2F3"/>
</svg>
